<svg version="1.1" id="Layer_1" xmlns="http://www.w3.org/2000/svg" xmlns:xlink="http://www.w3.org/1999/xlink" x="0px" y="0px"
	 width="100%" viewBox="0 0 1678 937" enable-background="new 0 0 1678 937" xml:space="preserve">
<path fill="#FEFEFE" opacity="1.000000" stroke="none" 
	d="
M1103.000000,938.000000 
	C735.333313,938.000000 368.166656,938.000000 1.000000,938.000000 
	C1.000000,625.666687 1.000000,313.333344 1.000000,1.000000 
	C560.333313,1.000000 1119.666626,1.000000 1679.000000,1.000000 
	C1679.000000,313.333344 1679.000000,625.666687 1679.000000,938.000000 
	C1487.166626,938.000000 1295.333374,938.000000 1103.000000,938.000000 
M423.473602,515.784546 
	C422.706818,516.140930 421.940033,516.497375 420.387848,516.908447 
	C410.508118,520.677002 400.577301,524.318298 390.765503,528.256042 
	C383.438141,531.196655 376.264435,534.520081 368.359833,537.941223 
	C367.260620,538.675598 366.114136,539.348694 365.069397,540.153687 
	C352.672455,549.706543 339.097900,556.647705 323.671295,560.045227 
	C310.766785,562.887207 297.916382,562.093445 284.311829,560.513611 
	C283.558502,560.452271 282.805176,560.390991 281.668121,560.176270 
	C281.668121,560.176270 281.255859,560.205322 280.739227,559.776550 
	C279.939545,559.558167 279.137787,559.347107 278.340485,559.120422 
	C241.289444,548.588196 216.923813,525.193665 206.844299,487.780731 
	C201.282883,467.137970 202.998215,446.599335 209.906998,425.780121 
	C224.096024,390.087128 250.026489,368.355896 287.801422,361.538422 
	C308.656738,357.774506 328.975586,360.093842 347.804993,370.806671 
	C353.901794,374.275391 358.907104,378.873779 361.786621,385.301208 
	C368.711395,400.758148 361.561707,416.413116 345.048889,421.985901 
	C327.826965,427.797974 310.369415,427.713104 292.841553,423.466370 
	C275.575348,419.283020 261.151398,410.063507 247.592178,397.236145 
	C242.378433,403.949585 237.320572,410.462311 231.776474,417.509155 
	C228.683624,425.314697 225.590775,433.120209 222.106094,441.551514 
	C221.406235,448.994781 220.541946,456.429077 220.136826,463.888367 
	C220.049408,465.497803 221.175507,467.884369 222.499313,468.734161 
	C227.804352,472.139557 233.407120,475.081146 239.322815,478.718994 
	C244.200760,480.867188 249.078705,483.015381 254.431168,485.668121 
	C259.577057,487.529358 264.722931,489.390594 270.332306,491.836639 
	C278.885864,493.513031 287.439453,495.189423 296.747070,497.139038 
	C298.836182,497.342621 300.925293,497.546173 303.636810,497.979950 
	C326.906982,500.259949 349.510864,497.423920 371.341644,488.980042 
	C421.781006,469.470795 447.007080,418.282715 430.788300,367.674988 
	C419.827515,333.473938 395.639313,311.478210 362.966461,299.048920 
	C318.540649,282.148682 274.337585,285.323486 231.357361,304.740540 
	C194.936401,321.194336 167.365402,347.396576 148.203430,383.275238 
	C147.632477,384.637573 147.007935,385.980194 146.499268,387.365387 
	C142.994064,396.910278 139.513046,406.464050 135.631454,416.638977 
	C134.078766,425.088776 132.526077,433.538574 130.494766,442.672882 
	C130.268539,445.798462 129.993912,448.921387 129.823486,452.049988 
	C127.849533,488.286713 136.078583,522.067322 154.770309,553.148926 
	C203.083328,633.486450 314.319946,659.533569 393.194366,608.905884 
	C401.099640,603.831665 408.111725,597.365967 416.088135,591.126770 
	C422.009766,578.938599 428.040253,566.801514 433.801575,554.538025 
	C436.246796,549.333252 438.127411,543.863220 440.829651,538.094177 
	C444.221985,529.699036 447.664948,521.323792 450.974274,512.896057 
	C451.910492,510.511780 452.381287,508.001221 448.133789,506.869446 
	C440.131989,509.835907 432.130219,512.802368 423.473602,515.784546 
M120.965881,296.850861 
	C120.965881,296.850861 120.843460,296.795441 120.201477,296.990387 
	C116.194519,300.738037 112.032410,304.334808 108.212097,308.263916 
	C99.586090,317.135620 97.672089,331.481079 105.398125,341.128326 
	C114.646202,352.676117 125.342987,363.063721 135.259506,373.788483 
	C140.970367,365.178467 146.283691,357.167786 152.135239,348.844360 
	C163.036606,335.177063 175.396652,322.973511 189.666824,311.791626 
	C195.132523,307.885315 200.598236,303.979004 206.171555,299.995789 
	C197.352783,290.716522 189.035767,281.870636 180.611359,273.128204 
	C172.586411,264.800354 160.493561,261.853943 151.036972,268.326263 
	C142.023697,274.495148 134.739838,283.190887 126.198486,291.153412 
	C124.775261,292.637604 123.352036,294.121796 121.389122,295.906433 
	C121.231956,296.263031 121.074791,296.619659 120.965881,296.850861 
M967.015015,411.779602 
	C967.833313,416.834961 969.290833,421.881866 969.357727,426.947174 
	C969.626221,447.275024 969.477112,467.608612 969.453674,487.940063 
	C969.445312,495.195709 971.539062,501.500275 977.938965,505.542999 
	C990.460693,513.452698 1005.907959,504.997681 1006.059509,489.911896 
	C1006.305725,465.416656 1006.237549,440.916016 1006.021729,416.420166 
	C1005.976562,411.303741 1005.126160,406.099823 1003.935852,401.105652 
	C1000.179138,385.343903 991.216431,374.016876 975.008667,369.839020 
	C953.469727,364.286987 934.463318,368.315308 919.248230,385.874420 
	C910.094116,373.742218 897.549683,368.451660 882.895264,367.616608 
	C868.262756,366.782745 855.499451,371.178345 845.267578,382.455170 
	C844.667603,381.086029 844.350342,380.323303 844.002686,379.574646 
	C840.119446,371.211426 832.666138,367.298859 824.100281,369.121887 
	C815.554016,370.940704 809.994019,377.595764 809.969666,386.670410 
	C809.877747,421.000671 809.831665,455.331573 809.960144,489.661530 
	C810.001343,500.671875 818.201477,508.585175 828.598694,508.316162 
	C838.669800,508.055573 846.138550,500.304260 846.185120,489.713257 
	C846.275269,469.215424 846.096008,448.715820 846.283997,428.219330 
	C846.326355,423.610382 846.811707,418.825531 848.151001,414.445160 
	C851.117065,404.744537 859.893677,399.099121 869.966064,399.624451 
	C879.513611,400.122375 886.606323,406.058838 888.904053,415.913696 
	C889.689880,419.283844 889.964172,422.839142 889.980225,426.312134 
	C890.075684,446.976593 890.015381,467.641724 890.033630,488.306610 
	C890.039185,494.573364 891.688782,500.274200 896.820557,504.274689 
	C902.850342,508.975128 909.594543,509.858978 916.542114,506.564484 
	C923.584045,503.225250 926.811646,497.192902 926.854675,489.617279 
	C926.971924,468.953033 926.797913,448.286896 926.958252,427.623230 
	C926.990173,423.509735 927.504211,419.260681 928.651978,415.323700 
	C931.138794,406.793671 936.803040,401.246490 945.836243,399.967926 
	C955.178772,398.645538 961.836121,402.321838 967.015015,411.779602 
M1039.007202,483.461670 
	C1044.595703,491.557434 1051.559570,498.254913 1060.366455,502.624908 
	C1079.159058,511.949860 1097.928955,513.776978 1116.046753,500.879608 
	C1118.895020,498.852081 1121.169189,496.018127 1123.751465,493.515686 
	C1126.070923,502.386749 1130.838501,507.255035 1138.243164,508.132294 
	C1146.203979,509.075500 1152.984741,506.756256 1156.889526,499.460754 
	C1158.532349,496.391266 1159.299438,492.495575 1159.317627,488.969543 
	C1159.491333,455.310181 1159.426270,421.649536 1159.395508,387.989288 
	C1159.393921,386.335327 1159.212158,384.653229 1158.878662,383.032745 
	C1157.370361,375.706757 1151.675659,370.195007 1144.413574,368.912415 
	C1136.995850,367.602264 1130.114990,370.742554 1126.101562,377.342712 
	C1125.116699,378.962280 1124.311890,380.691284 1123.249634,382.700409 
	C1117.359375,375.438721 1110.227783,370.654907 1101.485840,368.832153 
	C1077.251587,363.779053 1057.282471,371.455933 1042.031006,390.509827 
	C1021.580505,416.059143 1020.470581,453.974365 1039.007202,483.461670 
M663.107361,479.386261 
	C665.543091,482.758942 667.789673,486.289062 670.444824,489.479095 
	C689.434387,512.293945 732.126526,519.053955 750.753601,493.096100 
	C752.593811,500.669617 756.492310,506.350250 764.454041,507.986664 
	C776.476318,510.457672 786.310913,502.364624 786.420349,489.809540 
	C786.561157,473.651672 786.465515,457.491638 786.457703,441.332550 
	C786.448914,423.174377 786.518494,405.015442 786.366455,386.858398 
	C786.292480,378.032196 780.470337,370.895416 772.340637,369.019318 
	C764.160034,367.131500 756.325562,371.163269 752.249817,379.370453 
	C751.696228,380.485321 751.192871,381.625183 750.514832,383.077911 
	C742.614502,372.523438 732.029175,367.918091 719.647766,367.323853 
	C697.855652,366.278015 679.876404,374.428406 667.486877,392.255585 
	C648.319336,419.835754 647.817932,449.011444 663.107361,479.386261 
M1457.145020,439.347351 
	C1457.430298,437.040894 1457.933228,434.737671 1457.967896,432.427429 
	C1458.440186,401.038574 1437.198486,374.771606 1406.285767,368.431030 
	C1374.625366,361.937103 1345.223877,376.430054 1331.331177,405.560425 
	C1324.577148,419.722229 1321.723511,434.710388 1324.170288,450.272430 
	C1328.140137,475.521027 1340.711182,494.949158 1364.983521,504.777344 
	C1387.169800,513.760742 1409.755859,512.635376 1431.597656,503.266052 
	C1438.472290,500.317139 1444.884033,495.654480 1450.547241,490.682404 
	C1457.164062,484.873291 1457.431274,475.954773 1452.530273,469.418579 
	C1447.399170,462.575073 1439.103027,461.003418 1431.081421,465.368683 
	C1428.593384,466.722656 1426.084229,468.043732 1423.652588,469.493866 
	C1413.182007,475.738098 1401.803711,477.406708 1389.917603,475.924347 
	C1375.270264,474.097595 1363.921997,463.146332 1363.206543,449.970154 
	C1365.018677,449.970154 1366.804688,449.971558 1368.590820,449.969940 
	C1393.256348,449.947571 1417.922241,449.973297 1442.587402,449.874512 
	C1450.685303,449.842102 1454.487427,447.126953 1457.145020,439.347351 
M1219.279297,421.239288 
	C1219.541138,420.103363 1219.763794,418.956726 1220.070801,417.833130 
	C1223.484131,405.341980 1233.003662,398.946136 1246.859741,399.819855 
	C1257.697021,400.503265 1265.152100,408.164612 1266.883179,420.573547 
	C1267.249634,423.200562 1267.283691,425.888733 1267.288086,428.549042 
	C1267.316162,445.706024 1267.272339,462.863129 1267.303467,480.020111 
	C1267.310669,484.010559 1267.156250,488.050629 1267.701294,491.981201 
	C1269.120483,502.216919 1277.205933,509.052429 1286.916504,508.625732 
	C1297.153931,508.175903 1304.838867,500.339813 1304.891479,489.657806 
	C1305.013794,464.839508 1305.258423,440.012329 1304.757935,415.202789 
	C1304.164062,385.769928 1285.290771,367.579376 1255.822876,367.248260 
	C1241.185059,367.083710 1227.904663,370.742188 1217.551758,381.930481 
	C1217.160156,381.332092 1216.949829,381.070557 1216.802734,380.777344 
	C1211.862549,370.936005 1204.853760,367.062469 1195.652466,369.095856 
	C1187.333252,370.934265 1181.979858,378.718445 1181.945923,389.185272 
	C1181.902222,402.677582 1181.918457,416.170105 1181.925659,429.662537 
	C1181.936401,449.651306 1181.827393,469.641510 1182.033936,489.628326 
	C1182.149780,500.836914 1189.530640,508.432983 1199.800903,508.590179 
	C1210.318481,508.751190 1218.426392,500.682068 1218.861572,489.567719 
	C1218.959229,487.072540 1218.900513,484.571106 1218.910034,482.072571 
	C1218.986328,462.086273 1219.061768,442.099976 1219.279297,421.239288 
M610.116943,500.390076 
	C610.660828,501.020905 611.189880,501.665253 611.750793,502.280548 
	C618.448914,509.627747 630.218140,510.512665 637.380737,504.212433 
	C645.074768,497.444763 645.621155,486.939331 638.822083,478.798157 
	C633.271729,472.152252 627.841919,465.405579 622.369995,458.694366 
	C616.181274,451.103973 610.005249,443.503296 603.756165,435.824097 
	C613.858948,423.784180 623.606812,411.973206 633.584290,400.359528 
	C638.505920,394.630737 640.875916,388.361084 638.544678,381.031036 
	C636.475708,374.525574 631.875671,370.298096 625.081482,368.998474 
	C617.994019,367.642731 612.329224,370.463837 607.905518,375.866730 
	C599.066589,386.662140 590.325256,397.537384 581.233032,408.763184 
	C572.689880,398.096191 564.425720,387.703552 556.059326,377.393829 
	C554.397888,375.346497 552.572998,373.288788 550.431213,371.800262 
	C543.043274,366.665802 532.998047,368.138885 526.889282,374.997345 
	C521.118591,381.476227 521.508911,391.399841 527.719482,398.743530 
	C538.125977,411.048676 548.477783,423.400024 558.790833,435.658447 
	C558.546875,436.181335 558.465698,436.521210 558.265137,436.761414 
	C546.526001,450.823822 534.824646,464.918304 523.010498,478.917542 
	C516.109497,487.094849 516.384155,497.229553 523.898376,503.828522 
	C531.486877,510.492737 543.825562,509.785858 550.433838,502.230286 
	C552.624451,499.725647 554.619690,497.049530 556.691345,494.441528 
	C564.626160,484.452393 572.555725,474.459045 580.884277,463.967102 
	C590.753540,476.260864 600.214233,488.045685 610.116943,500.390076 
M1465.088501,384.042786 
	C1463.466675,403.272339 1476.246582,405.119385 1490.870605,404.261261 
	C1490.870605,406.951843 1490.871826,408.770752 1490.870483,410.589630 
	C1490.853638,435.565216 1490.821533,460.540833 1490.840332,485.516388 
	C1490.842285,488.170502 1490.849609,490.880798 1491.351562,493.468597 
	C1493.463257,504.357635 1503.935791,510.807648 1514.682129,508.004242 
	C1523.437866,505.720093 1528.622681,498.426636 1528.640991,488.010834 
	C1528.686401,462.202820 1528.645142,436.394653 1528.638794,410.586548 
	C1528.638306,408.638733 1528.638672,406.690948 1528.638672,404.230408 
	C1533.534668,404.230408 1537.822754,404.308533 1542.107056,404.214874 
	C1552.413208,403.989532 1559.211426,397.200531 1559.111572,387.332489 
	C1559.013794,377.674988 1552.260986,371.191345 1542.082764,371.046906 
	C1537.807007,370.986237 1533.529663,371.036804 1528.661255,371.036804 
	C1528.661255,361.503296 1528.735596,352.715515 1528.641602,343.929565 
	C1528.535156,333.964233 1522.711548,325.980530 1514.320557,324.043671 
	C1502.095581,321.221832 1491.025391,329.866333 1490.865967,342.494202 
	C1490.748901,351.766144 1490.843018,361.040710 1490.843018,370.850464 
	C1479.844849,370.743958 1468.897339,369.966614 1465.088501,384.042786 
M1453.128418,600.724182 
	C1454.243164,598.714478 1456.141357,596.772278 1456.321655,594.682068 
	C1456.806152,589.061829 1456.485840,583.376831 1456.618286,577.720642 
	C1456.750244,572.078796 1460.011963,568.729004 1465.116943,568.772522 
	C1469.812134,568.812561 1472.003784,571.521912 1472.103271,577.689880 
	C1472.202637,583.846313 1472.140381,590.005310 1472.185791,596.162903 
	C1472.207886,599.140930 1473.782959,601.348022 1476.695068,600.707947 
	C1478.405151,600.331970 1480.872314,598.007019 1480.942383,596.465210 
	C1481.312744,588.331726 1481.398193,580.144043 1480.859619,572.023132 
	C1480.394043,565.003235 1475.420898,561.151306 1468.428101,560.917725 
	C1462.722412,560.727295 1458.838745,563.805908 1455.384399,567.766113 
	C1447.884033,559.102234 1442.802734,558.547363 1433.623535,564.321594 
	C1430.320312,563.183472 1427.238892,561.065674 1425.740112,561.875916 
	C1423.916138,562.861877 1422.608154,566.278137 1422.504272,568.704163 
	C1422.134644,577.342163 1422.370483,586.006104 1422.378296,594.660217 
	C1422.381104,597.903503 1422.909302,600.904724 1427.040405,600.895386 
	C1431.137451,600.886108 1431.714600,597.927368 1431.723999,594.665710 
	C1431.741333,588.675171 1431.602539,582.676941 1431.863037,576.696472 
	C1432.080811,571.691650 1435.597412,568.670654 1440.345947,568.867920 
	C1444.787964,569.052368 1447.044678,571.630310 1447.143799,576.953857 
	C1447.255127,582.943298 1447.198486,588.935852 1447.218628,594.927063 
	C1447.230103,598.371643 1448.428711,600.787292 1453.128418,600.724182 
M650.359497,589.880981 
	C655.909485,602.159119 668.071289,605.382629 677.435669,597.908264 
	C680.345642,598.984741 682.947327,600.901123 684.649719,600.294312 
	C686.189575,599.745483 687.569824,596.455200 687.605286,594.349854 
	C687.843933,580.196350 687.676453,566.036316 687.709229,551.878601 
	C687.717102,548.483887 686.913818,545.644897 682.938843,545.749512 
	C679.330200,545.844360 678.406921,548.537048 678.439209,551.723022 
	C678.479248,555.675293 678.448792,559.628235 678.448792,564.142212 
	C676.874573,563.453491 675.991150,563.097595 675.133850,562.687195 
	C664.970215,557.821838 653.117615,562.571350 650.356079,573.433105 
	C649.102356,578.364624 650.119507,583.873535 650.359497,589.880981 
M1093.403809,592.499207 
	C1093.384277,597.817505 1093.326050,603.136108 1093.359131,608.454102 
	C1093.380493,611.896362 1093.545776,615.734497 1098.217773,615.564087 
	C1102.387207,615.412048 1102.756592,611.940491 1102.693604,608.553040 
	C1102.628418,605.047424 1102.679199,601.539734 1102.679199,597.602539 
	C1114.697754,603.478699 1121.939941,602.318176 1128.303467,594.134644 
	C1134.149292,586.617004 1133.589478,573.829773 1127.010620,566.364685 
	C1120.823120,559.343567 1111.423096,559.006714 1104.132935,564.329224 
	C1101.331055,563.248901 1097.920410,561.019348 1097.020386,561.776062 
	C1095.113159,563.379517 1093.688110,566.491699 1093.536987,569.071472 
	C1093.100464,576.524536 1093.393188,584.020325 1093.403809,592.499207 
M818.306885,568.936523 
	C813.042847,579.069885 814.147034,589.774475 821.165588,596.651550 
	C827.563599,602.920471 834.410889,603.098755 843.455811,597.946106 
	C846.364014,599.111328 849.210022,601.202087 850.385437,600.499023 
	C852.133240,599.453857 853.530945,596.467896 853.622437,594.247986 
	C853.978821,585.599915 853.947449,576.921509 853.634583,568.269775 
	C853.550415,565.942322 852.481812,562.326782 850.927185,561.724854 
	C849.148682,561.036255 846.324585,563.048218 843.130676,564.178406 
	C833.833313,558.505676 826.143494,559.556702 818.306885,568.936523 
M1202.025024,561.091675 
	C1192.086426,560.563660 1185.224487,564.369324 1182.241455,572.063660 
	C1178.824219,580.878113 1181.131714,591.874329 1187.561646,597.416870 
	C1193.940796,602.915588 1200.888184,602.828796 1209.177612,597.796875 
	C1211.920532,598.972229 1214.442871,601.005737 1215.869507,600.411011 
	C1217.470459,599.743591 1218.902710,596.731567 1218.980225,594.685669 
	C1219.313477,585.878845 1219.306274,577.045837 1218.997681,568.237244 
	C1218.917114,565.935364 1217.873657,562.573730 1216.231934,561.734680 
	C1214.662354,560.932495 1211.738647,562.780151 1208.572266,563.708740 
	C1207.388672,563.190063 1205.130737,562.200500 1202.025024,561.091675 
M601.712646,597.881226 
	C609.993958,603.300293 618.342468,602.798523 626.647400,598.018982 
	C629.050537,596.635925 631.294189,594.778931 629.179260,591.632935 
	C627.377930,588.953491 624.995972,589.498657 622.653381,591.054016 
	C621.962585,591.512634 621.263123,591.983582 620.509705,592.318726 
	C612.387024,595.931824 604.199768,592.055725 603.536133,584.041199 
	C611.031677,584.041199 618.508057,584.075012 625.984009,584.029114 
	C630.827698,583.999390 632.221313,582.393616 631.702637,577.667725 
	C630.276367,564.674255 616.882507,557.107117 604.952087,562.554504 
	C591.986450,568.474548 589.966736,587.017456 601.712646,597.881226 
M1350.571167,598.176392 
	C1359.205444,591.316101 1361.860107,580.106995 1356.983154,571.103333 
	C1352.396362,562.635437 1342.441895,558.740295 1333.018066,561.794556 
	C1324.894653,564.427246 1320.384155,570.155273 1319.462769,578.532288 
	C1318.581665,586.542053 1321.052124,593.437073 1327.910889,598.029907 
	C1335.009888,602.783630 1342.493408,603.002075 1350.571167,598.176392 
M945.739075,589.483704 
	C950.716187,599.284607 958.745972,603.242737 969.120300,601.008911 
	C977.436340,599.218262 983.752747,591.743164 984.105896,583.274475 
	C984.572449,572.086121 979.769531,564.346619 970.187134,561.764160 
	C962.908203,559.802490 955.876770,560.511597 950.232239,566.212891 
	C943.855042,572.654236 942.468872,580.279846 945.739075,589.483704 
M1012.987183,577.967468 
	C1013.750488,571.642273 1016.956726,568.532959 1022.449829,568.790955 
	C1027.413696,569.024109 1029.318481,571.584534 1029.375244,578.212952 
	C1029.425049,584.034912 1029.097168,589.887024 1029.628418,595.662170 
	C1029.797974,597.503479 1032.185181,599.140808 1033.557617,600.871460 
	C1035.223755,599.363098 1038.259644,597.912537 1038.326050,596.336731 
	C1038.668457,588.220520 1038.889404,579.995483 1037.927368,571.955078 
	C1036.817993,562.683899 1029.051880,558.491577 1020.209595,561.641846 
	C1017.773010,562.510010 1015.643311,564.239319 1014.403381,564.967957 
	C1011.648071,563.632446 1009.298645,561.494141 1007.136597,561.669373 
	C1003.474731,561.966003 1003.831421,565.528564 1003.841003,568.394775 
	C1003.870972,577.377380 1003.893250,586.360474 1003.835510,595.342834 
	C1003.815979,598.384277 1004.645996,600.766785 1008.079102,600.874512 
	C1011.707581,600.988342 1012.945496,598.644592 1012.943176,595.347717 
	C1012.939392,589.858276 1012.967590,584.368835 1012.987183,577.967468 
M734.909424,574.516113 
	C734.907227,578.010864 735.026855,581.510986 734.875488,584.999268 
	C734.620667,590.868164 731.948914,593.478088 726.602783,593.344421 
	C721.254150,593.210632 718.800537,590.585327 718.710083,584.642334 
	C718.618958,578.652588 718.710938,572.660339 718.656189,566.669739 
	C718.628296,563.618652 717.155945,560.956299 714.048706,561.526550 
	C712.296570,561.848206 709.788452,564.621704 709.714722,566.378662 
	C709.394653,574.000793 709.383728,581.701843 710.147949,589.284790 
	C710.884338,596.592224 716.500977,600.766235 724.944641,601.566772 
	C732.905334,602.321655 741.335266,598.570923 742.348755,592.101990 
	C743.748535,583.166870 743.500671,573.944519 743.458252,564.847595 
	C743.452698,563.648315 740.451965,561.485718 738.924316,561.559082 
	C737.530701,561.625793 735.530029,563.933167 735.094788,565.593262 
	C734.441528,568.085083 734.922058,570.874084 734.909424,574.516113 
M788.526123,592.493164 
	C783.344116,594.073608 778.582153,593.656616 774.961914,589.167969 
	C771.639160,585.048218 771.972900,577.263672 775.457214,572.799194 
	C778.604065,568.767090 783.998840,567.753357 789.518799,570.092407 
	C791.011230,570.724854 792.709961,571.822632 794.070435,571.538940 
	C795.357056,571.270630 797.392517,569.241638 797.211365,568.387207 
	C796.819397,566.539307 795.607239,564.339966 794.052124,563.347351 
	C781.913635,555.600037 765.654053,563.693542 763.436646,578.420532 
	C762.236572,586.390564 766.021179,594.949280 772.926453,598.918701 
	C780.193909,603.096436 787.645264,602.668457 794.664856,598.332214 
	C796.151917,597.413635 797.195984,595.000488 797.423645,593.150391 
	C797.536560,592.232483 795.379211,590.223511 794.167419,590.155212 
	C792.573669,590.065247 790.899658,591.400818 788.526123,592.493164 
M1294.060059,585.488037 
	C1294.060059,580.366089 1294.060059,575.244141 1294.060059,570.385559 
	C1297.835449,568.711670 1303.795166,571.705444 1304.127686,566.213562 
	C1304.559937,559.074463 1297.285889,563.543152 1294.280029,561.217896 
	C1293.621216,553.986511 1294.463013,553.264465 1301.233521,553.572571 
	C1302.709473,553.639771 1304.269287,551.859802 1305.790527,550.930542 
	C1304.828003,549.359741 1304.239258,547.043457 1302.840820,546.342529 
	C1295.325317,542.575562 1285.773193,548.176270 1284.998535,556.539429 
	C1284.849854,558.146118 1284.750488,559.757446 1284.628296,561.366638 
	C1284.232300,561.068604 1283.836304,560.770508 1283.440186,560.472473 
	C1281.394653,562.190857 1279.348999,563.909241 1277.303345,565.627625 
	C1279.435669,567.592590 1281.568115,569.557617 1283.700439,571.522583 
	C1284.111206,571.230408 1284.521851,570.938293 1284.932617,570.646118 
	C1284.932617,578.958008 1284.941650,587.269836 1284.927979,595.581665 
	C1284.922974,598.719238 1286.228882,600.833618 1289.552368,600.826111 
	C1292.949585,600.818481 1294.065796,598.562195 1294.041748,595.477783 
	C1294.018433,592.478394 1294.048096,589.478516 1294.060059,585.488037 
M1251.049805,600.922424 
	C1252.876099,600.926758 1254.991333,601.515869 1256.457397,600.791321 
	C1258.410400,599.825989 1259.858276,597.838562 1261.523071,596.290100 
	C1259.974731,595.163147 1258.411743,594.055847 1256.882690,592.903259 
	C1255.592896,591.930969 1253.300293,590.959961 1253.245483,589.895691 
	C1252.906250,583.325439 1253.075073,576.729004 1253.075073,569.999146 
	C1255.191162,569.868713 1256.923828,570.230530 1258.078003,569.574463 
	C1259.591553,568.714111 1261.543213,567.106812 1261.630005,565.716187 
	C1261.704590,564.520874 1259.345581,562.022766 1258.201050,562.101990 
	C1253.303711,562.440918 1252.984985,559.892639 1252.848755,556.048096 
	C1252.795532,554.545837 1250.266235,551.798035 1249.227051,551.958862 
	C1247.412231,552.239746 1245.425293,554.052368 1244.371094,555.755737 
	C1243.547485,557.086182 1244.027588,559.223572 1243.928467,561.002441 
	C1243.483032,560.716309 1243.037720,560.430237 1242.592407,560.144104 
	C1240.792358,562.123169 1238.992310,564.102234 1237.192383,566.081360 
	C1239.190552,567.842224 1241.188721,569.603088 1244.062866,572.135986 
	C1244.062866,577.736938 1244.062988,584.697754 1244.062744,591.658569 
	C1244.062622,596.095642 1245.791626,599.367126 1251.049805,600.922424 
M896.545959,564.773621 
	C893.920288,563.228088 891.294556,561.682495 887.952637,559.715332 
	C887.212097,557.587524 889.536987,552.308228 883.985779,552.029053 
	C876.913269,551.673523 879.971497,558.176025 878.535339,561.647583 
	C878.150452,561.311768 877.765564,560.975952 877.380676,560.640137 
	C875.651428,562.355286 873.922119,564.070496 872.192871,565.785645 
	C874.067993,567.619019 875.943054,569.452332 877.818176,571.285645 
	C878.934753,577.324402 879.104675,584.121033 878.893921,590.905884 
	C878.596619,600.478027 885.415222,601.936584 892.279297,600.425903 
	C893.771606,600.097534 894.763977,597.497314 895.986572,595.943481 
	C894.555664,594.909790 893.109192,593.896729 891.698364,592.836304 
	C890.444397,591.893799 888.213745,590.948792 888.163147,589.919006 
	C887.839172,583.327332 887.997864,576.711975 887.997864,570.104370 
	C888.479858,570.479004 888.961853,570.853577 889.443848,571.228210 
	C891.842590,569.321899 894.241272,567.415527 896.545959,564.773621 
M1156.629028,545.652832 
	C1152.880615,546.253174 1152.008423,548.754456 1152.022949,552.150635 
	C1152.083984,566.430847 1152.061157,580.711670 1151.997070,594.991943 
	C1151.982422,598.237488 1152.906006,600.762878 1156.534424,600.805359 
	C1160.362793,600.850281 1161.559937,598.247681 1161.554932,594.811035 
	C1161.533936,580.364502 1161.526489,565.917908 1161.528687,551.471375 
	C1161.529175,548.505371 1160.614258,546.242859 1156.629028,545.652832 
M1399.289185,560.924255 
	C1395.466064,562.013977 1391.642944,563.103699 1388.316650,564.051880 
	C1385.986206,563.231384 1382.874756,561.091675 1381.474365,561.903503 
	C1379.668335,562.950623 1378.447876,566.327087 1378.346313,568.757568 
	C1377.985962,577.391968 1378.257568,586.051086 1378.185181,594.700012 
	C1378.156860,598.069397 1378.814941,600.816101 1382.867920,600.873779 
	C1386.978882,600.932312 1387.645630,598.094727 1387.651245,594.781799 
	C1387.660889,589.126282 1387.559692,583.463989 1387.802856,577.817322 
	C1388.092163,571.101685 1391.819336,568.258484 1398.187622,568.824951 
	C1400.006470,568.986755 1403.022949,567.965576 1403.654175,566.623413 
	C1404.944214,563.880554 1403.621094,561.442261 1399.289185,560.924255 
M915.454773,579.505249 
	C915.440186,584.670471 915.451660,589.835938 915.401611,595.000793 
	C915.370239,598.236328 916.408142,600.726135 920.031494,600.840332 
	C923.701721,600.956177 924.841187,598.556824 924.829102,595.267212 
	C924.794250,585.769836 924.824829,576.272217 924.770691,566.775024 
	C924.753967,563.841187 923.812317,561.235291 920.349731,561.332764 
	C916.965393,561.428101 915.399536,563.670654 915.412903,567.012451 
	C915.428223,570.844727 915.440002,574.677002 915.454773,579.505249 
M921.884705,547.675110 
	C918.695312,546.867065 915.941223,547.617676 915.509094,551.093811 
	C915.299805,552.776917 916.521667,555.773010 917.793274,556.229065 
	C919.539062,556.855042 922.711365,556.339233 923.903076,555.048523 
	C925.994202,552.783508 925.613525,549.850586 921.884705,547.675110 
z"/>
<path fill="#09607A" opacity="1.000000" stroke="none" 
	d="
M222.497940,440.925751 
	C225.590775,433.120209 228.683624,425.314697 232.371002,417.247864 
	C234.697968,417.907806 236.549179,418.660095 238.141769,419.780151 
	C244.235519,424.065582 250.007324,428.855530 256.328369,432.763062 
	C286.509583,451.420807 318.681610,454.964355 352.257141,443.970703 
	C374.533295,436.676849 387.807709,418.171753 386.808441,394.830292 
	C385.882477,373.201141 373.871002,357.859924 355.099365,348.177643 
	C330.806854,335.647675 304.818970,334.099731 278.490448,339.459900 
	C253.625046,344.522186 232.279129,356.423645 214.532166,374.835236 
	C204.712280,385.022858 196.882339,396.524811 191.105698,409.237518 
	C186.684372,418.967529 182.163681,428.927216 182.018951,440.019775 
	C182.011826,440.003082 182.041489,440.007935 181.869049,440.085815 
	C181.625275,440.265594 181.472244,440.426788 181.496094,440.459656 
	C181.634460,440.650360 181.814423,440.810913 181.946381,441.370422 
	C181.288467,443.633942 180.107666,445.515869 180.131668,447.382263 
	C180.278564,458.812225 179.431198,470.445892 181.259506,481.628387 
	C187.296753,518.554077 205.993439,547.651123 238.179276,567.320068 
	C245.301071,571.672241 253.368179,574.477539 261.234802,578.269775 
	C279.975098,585.402466 299.238983,587.023499 318.541229,584.676270 
	C341.144440,581.927734 361.544769,573.119446 379.370056,558.059509 
	C393.474640,553.522156 399.679413,557.966370 399.002380,572.194153 
	C398.334747,573.338135 397.840454,574.222534 397.006104,575.190674 
	C394.530365,577.571289 392.783905,580.532654 390.192078,582.050720 
	C378.481201,588.909790 367.012482,596.512329 354.565125,601.714111 
	C330.121918,611.928955 304.399414,613.344482 278.337952,609.057068 
	C234.402908,601.829346 200.238678,579.197327 176.287109,542.053955 
	C160.616745,517.752869 152.775223,490.575745 152.945663,461.364929 
	C152.963867,458.248505 152.331284,455.128235 152.376053,451.929657 
	C153.165390,449.894501 153.579300,447.939453 153.992859,445.562958 
	C155.770233,436.228882 156.791214,427.081757 159.466949,418.447418 
	C167.635696,392.087677 181.940079,369.499146 202.496765,350.870667 
	C212.915726,341.429016 224.235031,333.375275 236.820221,327.246277 
	C263.909668,314.053711 292.463440,309.430115 322.451782,312.893646 
	C345.787018,315.588776 366.568909,323.452026 384.740753,338.883179 
	C400.590698,352.342590 409.508850,369.111908 411.853943,389.273529 
	C415.416626,419.902985 398.949219,449.309418 371.431946,463.294312 
	C349.682159,474.347992 326.570648,476.677582 302.677368,474.413452 
	C299.135284,474.077820 295.554504,474.151123 291.648590,473.871948 
	C288.545349,473.114502 285.785126,472.520416 282.835968,471.616699 
	C276.427429,469.210754 270.207825,467.114349 263.767975,464.748322 
	C257.613373,461.622620 251.464935,459.133118 245.796280,455.822144 
	C237.843185,451.176849 230.246857,445.920654 222.497940,440.925751 
z"/>
<path fill="#0C2A52" opacity="1.000000" stroke="none" 
	d="
M966.883850,411.414978 
	C961.836121,402.321838 955.178772,398.645538 945.836243,399.967926 
	C936.803040,401.246490 931.138794,406.793671 928.651978,415.323700 
	C927.504211,419.260681 926.990173,423.509735 926.958252,427.623230 
	C926.797913,448.286896 926.971924,468.953033 926.854675,489.617279 
	C926.811646,497.192902 923.584045,503.225250 916.542114,506.564484 
	C909.594543,509.858978 902.850342,508.975128 896.820557,504.274689 
	C891.688782,500.274200 890.039185,494.573364 890.033630,488.306610 
	C890.015381,467.641724 890.075684,446.976593 889.980225,426.312134 
	C889.964172,422.839142 889.689880,419.283844 888.904053,415.913696 
	C886.606323,406.058838 879.513611,400.122375 869.966064,399.624451 
	C859.893677,399.099121 851.117065,404.744537 848.151001,414.445160 
	C846.811707,418.825531 846.326355,423.610382 846.283997,428.219330 
	C846.096008,448.715820 846.275269,469.215424 846.185120,489.713257 
	C846.138550,500.304260 838.669800,508.055573 828.598694,508.316162 
	C818.201477,508.585175 810.001343,500.671875 809.960144,489.661530 
	C809.831665,455.331573 809.877747,421.000671 809.969666,386.670410 
	C809.994019,377.595764 815.554016,370.940704 824.100281,369.121887 
	C832.666138,367.298859 840.119446,371.211426 844.002686,379.574646 
	C844.350342,380.323303 844.667603,381.086029 845.267578,382.455170 
	C855.499451,371.178345 868.262756,366.782745 882.895264,367.616608 
	C897.549683,368.451660 910.094116,373.742218 919.248230,385.874420 
	C934.463318,368.315308 953.469727,364.286987 975.008667,369.839020 
	C991.216431,374.016876 1000.179138,385.343903 1003.935852,401.105652 
	C1005.126160,406.099823 1005.976562,411.303741 1006.021729,416.420166 
	C1006.237549,440.916016 1006.305725,465.416656 1006.059509,489.911896 
	C1005.907959,504.997681 990.460693,513.452698 977.938965,505.542999 
	C971.539062,501.500275 969.445312,495.195709 969.453674,487.940063 
	C969.477112,467.608612 969.626221,447.275024 969.357727,426.947174 
	C969.290833,421.881866 967.833313,416.834961 966.883850,411.414978 
z"/>
<path fill="#2F7588" opacity="1.000000" stroke="none" 
	d="
M263.988220,465.017944 
	C270.207825,467.114349 276.427429,469.210754 282.826904,472.038513 
	C283.006805,474.332550 283.006805,475.895172 283.006805,478.980621 
	C286.774994,476.906555 289.383301,475.470917 291.991608,474.035278 
	C295.554504,474.151123 299.135284,474.077820 302.677368,474.413452 
	C326.570648,476.677582 349.682159,474.347992 371.431946,463.294312 
	C398.949219,449.309418 415.416626,419.902985 411.853943,389.273529 
	C409.508850,369.111908 400.590698,352.342590 384.740753,338.883179 
	C366.568909,323.452026 345.787018,315.588776 322.451782,312.893646 
	C292.463440,309.430115 263.909668,314.053711 236.820221,327.246277 
	C224.235031,333.375275 212.915726,341.429016 202.496765,350.870667 
	C181.940079,369.499146 167.635696,392.087677 159.466949,418.447418 
	C156.791214,427.081757 155.770233,436.228882 153.695557,445.272156 
	C153.927383,436.273956 154.456192,427.145111 155.001068,417.600403 
	C157.195526,407.410919 159.425308,397.648163 161.489944,387.850616 
	C161.761185,386.563477 161.657471,384.537384 160.869522,383.876740 
	C160.115463,383.244537 157.934341,383.477386 156.919922,384.147156 
	C153.679047,386.286835 151.120117,385.801208 148.789871,382.901855 
	C167.365402,347.396576 194.936401,321.194336 231.357361,304.740540 
	C274.337585,285.323486 318.540649,282.148682 362.966461,299.048920 
	C395.639313,311.478210 419.827515,333.473938 430.788300,367.674988 
	C447.007080,418.282715 421.781006,469.470795 371.341644,488.980042 
	C349.510864,497.423920 326.906982,500.259949 303.434937,497.497864 
	C303.934479,496.681152 304.760101,495.916687 305.318329,496.077911 
	C311.377686,497.828033 314.759705,491.672943 320.032288,491.109863 
	C320.359161,491.074921 320.524017,489.523163 320.857605,488.348236 
	C316.974884,488.138916 313.382080,486.591919 310.890656,490.809601 
	C310.421967,491.603119 308.479126,491.919891 307.273438,491.813263 
	C302.866882,491.423431 298.492035,490.679901 294.086670,490.268707 
	C293.167694,490.182953 292.169434,490.947052 291.207733,491.319519 
	C291.677765,492.439545 291.916199,493.765045 292.679352,494.624939 
	C293.536774,495.591217 294.867920,496.137085 295.992981,496.865845 
	C287.439453,495.189423 278.885864,493.513031 270.314941,491.239716 
	C272.881836,489.285126 275.702087,488.229004 277.963867,486.459198 
	C279.372040,485.357300 279.935608,483.176056 280.878235,481.479187 
	C279.237183,480.653564 277.656738,479.301697 275.943268,479.104218 
	C271.381897,478.578461 266.717896,478.057922 262.181244,478.475525 
	C258.384369,478.825073 254.020584,479.674957 253.956665,485.163544 
	C249.078705,483.015381 244.200760,480.867188 239.315704,478.176270 
	C245.642059,478.919800 248.981613,474.563202 252.675186,470.696899 
	C253.792053,469.527832 255.379913,468.732147 256.872284,468.016052 
	C259.190125,466.903870 261.610992,466.006409 263.988220,465.017944 
z"/>
<path fill="#0D2A52" opacity="1.000000" stroke="none" 
	d="
M1038.815918,483.157410 
	C1020.470581,453.974365 1021.580505,416.059143 1042.031006,390.509827 
	C1057.282471,371.455933 1077.251587,363.779053 1101.485840,368.832153 
	C1110.227783,370.654907 1117.359375,375.438721 1123.249634,382.700409 
	C1124.311890,380.691284 1125.116699,378.962280 1126.101562,377.342712 
	C1130.114990,370.742554 1136.995850,367.602264 1144.413574,368.912415 
	C1151.675659,370.195007 1157.370361,375.706757 1158.878662,383.032745 
	C1159.212158,384.653229 1159.393921,386.335327 1159.395508,387.989288 
	C1159.426270,421.649536 1159.491333,455.310181 1159.317627,488.969543 
	C1159.299438,492.495575 1158.532349,496.391266 1156.889526,499.460754 
	C1152.984741,506.756256 1146.203979,509.075500 1138.243164,508.132294 
	C1130.838501,507.255035 1126.070923,502.386749 1123.751465,493.515686 
	C1121.169189,496.018127 1118.895020,498.852081 1116.046753,500.879608 
	C1097.928955,513.776978 1079.159058,511.949860 1060.366455,502.624908 
	C1051.559570,498.254913 1044.595703,491.557434 1038.815918,483.157410 
M1068.275757,461.107910 
	C1069.194336,462.289062 1070.071655,463.505157 1071.037720,464.646118 
	C1083.744141,479.653015 1103.723022,478.990173 1115.455444,463.183136 
	C1125.076172,450.221130 1125.545654,427.890381 1116.477783,414.543854 
	C1103.687134,395.717590 1077.057495,397.232666 1067.150024,417.741028 
	C1060.332764,431.852783 1060.662109,446.352661 1068.275757,461.107910 
z"/>
<path fill="#0C2A53" opacity="1.000000" stroke="none" 
	d="
M662.932068,479.066956 
	C647.817932,449.011444 648.319336,419.835754 667.486877,392.255585 
	C679.876404,374.428406 697.855652,366.278015 719.647766,367.323853 
	C732.029175,367.918091 742.614502,372.523438 750.514832,383.077911 
	C751.192871,381.625183 751.696228,380.485321 752.249817,379.370453 
	C756.325562,371.163269 764.160034,367.131500 772.340637,369.019318 
	C780.470337,370.895416 786.292480,378.032196 786.366455,386.858398 
	C786.518494,405.015442 786.448914,423.174377 786.457703,441.332550 
	C786.465515,457.491638 786.561157,473.651672 786.420349,489.809540 
	C786.310913,502.364624 776.476318,510.457672 764.454041,507.986664 
	C756.492310,506.350250 752.593811,500.669617 750.753601,493.096100 
	C732.126526,519.053955 689.434387,512.293945 670.444824,489.479095 
	C667.789673,486.289062 665.543091,482.758942 662.932068,479.066956 
M695.085266,461.262848 
	C706.943665,480.651459 731.829834,478.950897 742.787048,463.248291 
	C752.234253,449.709656 752.887878,428.427704 743.729431,414.664612 
	C737.512390,405.321838 728.812805,400.743439 717.496582,401.480255 
	C705.861755,402.237793 697.704407,408.430267 693.247681,418.749542 
	C687.203491,432.744324 687.669617,446.891022 695.085266,461.262848 
z"/>
<path fill="#F08F45" opacity="1.000000" stroke="none" 
	d="
M1457.080322,439.754211 
	C1454.487427,447.126953 1450.685303,449.842102 1442.587402,449.874512 
	C1417.922241,449.973297 1393.256348,449.947571 1368.590820,449.969940 
	C1366.804688,449.971558 1365.018677,449.970154 1363.206543,449.970154 
	C1363.921997,463.146332 1375.270264,474.097595 1389.917603,475.924347 
	C1401.803711,477.406708 1413.182007,475.738098 1423.652588,469.493866 
	C1426.084229,468.043732 1428.593384,466.722656 1431.081421,465.368683 
	C1439.103027,461.003418 1447.399170,462.575073 1452.530273,469.418579 
	C1457.431274,475.954773 1457.164062,484.873291 1450.547241,490.682404 
	C1444.884033,495.654480 1438.472290,500.317139 1431.597656,503.266052 
	C1409.755859,512.635376 1387.169800,513.760742 1364.983521,504.777344 
	C1340.711182,494.949158 1328.140137,475.521027 1324.170288,450.272430 
	C1321.723511,434.710388 1324.577148,419.722229 1331.331177,405.560425 
	C1345.223877,376.430054 1374.625366,361.937103 1406.285767,368.431030 
	C1437.198486,374.771606 1458.440186,401.038574 1457.967896,432.427429 
	C1457.933228,434.737671 1457.430298,437.040894 1457.080322,439.754211 
M1364.105835,418.827026 
	C1363.727783,420.687561 1363.349731,422.548065 1362.955933,424.485443 
	C1382.617310,424.485443 1401.630981,424.485443 1420.901123,424.485443 
	C1419.770386,417.077850 1417.292725,410.953705 1412.239746,405.889191 
	C1399.519897,393.140472 1373.104980,394.321198 1364.105835,418.827026 
z"/>
<path fill="#F08F45" opacity="1.000000" stroke="none" 
	d="
M1219.208374,421.676483 
	C1219.061768,442.099976 1218.986328,462.086273 1218.910034,482.072571 
	C1218.900513,484.571106 1218.959229,487.072540 1218.861572,489.567719 
	C1218.426392,500.682068 1210.318481,508.751190 1199.800903,508.590179 
	C1189.530640,508.432983 1182.149780,500.836914 1182.033936,489.628326 
	C1181.827393,469.641510 1181.936401,449.651306 1181.925659,429.662537 
	C1181.918457,416.170105 1181.902222,402.677582 1181.945923,389.185272 
	C1181.979858,378.718445 1187.333252,370.934265 1195.652466,369.095856 
	C1204.853760,367.062469 1211.862549,370.936005 1216.802734,380.777344 
	C1216.949829,381.070557 1217.160156,381.332092 1217.551758,381.930481 
	C1227.904663,370.742188 1241.185059,367.083710 1255.822876,367.248260 
	C1285.290771,367.579376 1304.164062,385.769928 1304.757935,415.202789 
	C1305.258423,440.012329 1305.013794,464.839508 1304.891479,489.657806 
	C1304.838867,500.339813 1297.153931,508.175903 1286.916504,508.625732 
	C1277.205933,509.052429 1269.120483,502.216919 1267.701294,491.981201 
	C1267.156250,488.050629 1267.310669,484.010559 1267.303467,480.020111 
	C1267.272339,462.863129 1267.316162,445.706024 1267.288086,428.549042 
	C1267.283691,425.888733 1267.249634,423.200562 1266.883179,420.573547 
	C1265.152100,408.164612 1257.697021,400.503265 1246.859741,399.819855 
	C1233.003662,398.946136 1223.484131,405.341980 1220.070801,417.833130 
	C1219.763794,418.956726 1219.541138,420.103363 1219.208374,421.676483 
z"/>
<path fill="#0C2A52" opacity="1.000000" stroke="none" 
	d="
M609.895935,500.110291 
	C600.214233,488.045685 590.753540,476.260864 580.884277,463.967102 
	C572.555725,474.459045 564.626160,484.452393 556.691345,494.441528 
	C554.619690,497.049530 552.624451,499.725647 550.433838,502.230286 
	C543.825562,509.785858 531.486877,510.492737 523.898376,503.828522 
	C516.384155,497.229553 516.109497,487.094849 523.010498,478.917542 
	C534.824646,464.918304 546.526001,450.823822 558.265137,436.761414 
	C558.465698,436.521210 558.546875,436.181335 558.790833,435.658447 
	C548.477783,423.400024 538.125977,411.048676 527.719482,398.743530 
	C521.508911,391.399841 521.118591,381.476227 526.889282,374.997345 
	C532.998047,368.138885 543.043274,366.665802 550.431213,371.800262 
	C552.572998,373.288788 554.397888,375.346497 556.059326,377.393829 
	C564.425720,387.703552 572.689880,398.096191 581.233032,408.763184 
	C590.325256,397.537384 599.066589,386.662140 607.905518,375.866730 
	C612.329224,370.463837 617.994019,367.642731 625.081482,368.998474 
	C631.875671,370.298096 636.475708,374.525574 638.544678,381.031036 
	C640.875916,388.361084 638.505920,394.630737 633.584290,400.359528 
	C623.606812,411.973206 613.858948,423.784180 603.756165,435.824097 
	C610.005249,443.503296 616.181274,451.103973 622.369995,458.694366 
	C627.841919,465.405579 633.271729,472.152252 638.822083,478.798157 
	C645.621155,486.939331 645.074768,497.444763 637.380737,504.212433 
	C630.218140,510.512665 618.448914,509.627747 611.750793,502.280548 
	C611.189880,501.665253 610.660828,501.020905 609.895935,500.110291 
z"/>
<path fill="#094E64" opacity="1.000000" stroke="none" 
	d="
M182.026093,440.036499 
	C182.163681,428.927216 186.684372,418.967529 191.105698,409.237518 
	C196.882339,396.524811 204.712280,385.022858 214.532166,374.835236 
	C232.279129,356.423645 253.625046,344.522186 278.490448,339.459900 
	C304.818970,334.099731 330.806854,335.647675 355.099365,348.177643 
	C373.871002,357.859924 385.882477,373.201141 386.808441,394.830292 
	C387.807709,418.171753 374.533295,436.676849 352.257141,443.970703 
	C318.681610,454.964355 286.509583,451.420807 256.328369,432.763062 
	C250.007324,428.855530 244.235519,424.065582 238.141769,419.780151 
	C236.549179,418.660095 234.697968,417.907806 232.614136,416.980804 
	C237.320572,410.462311 242.378433,403.949585 247.592178,397.236145 
	C261.151398,410.063507 275.575348,419.283020 292.841553,423.466370 
	C310.369415,427.713104 327.826965,427.797974 345.048889,421.985901 
	C361.561707,416.413116 368.711395,400.758148 361.786621,385.301208 
	C358.907104,378.873779 353.901794,374.275391 347.804993,370.806671 
	C328.975586,360.093842 308.656738,357.774506 287.801422,361.538422 
	C250.026489,368.355896 224.096024,390.087128 209.303665,425.993408 
	C197.690765,426.731232 188.783493,431.310577 182.026093,440.036499 
z"/>
<path fill="#094F65" opacity="1.000000" stroke="none" 
	d="
M152.000610,452.009766 
	C152.331284,455.128235 152.963867,458.248505 152.945663,461.364929 
	C152.775223,490.575745 160.616745,517.752869 176.287109,542.053955 
	C200.238678,579.197327 234.402908,601.829346 278.337952,609.057068 
	C304.399414,613.344482 330.121918,611.928955 354.565125,601.714111 
	C367.012482,596.512329 378.481201,588.909790 390.192078,582.050720 
	C392.783905,580.532654 394.530365,577.571289 396.923889,575.508057 
	C397.712952,576.105469 398.341949,576.875122 398.761383,576.774231 
	C410.965851,573.836365 416.812408,578.956970 415.538330,591.546082 
	C408.111725,597.365967 401.099640,603.831665 393.194366,608.905884 
	C314.319946,659.533569 203.083328,633.486450 154.770309,553.148926 
	C136.078583,522.067322 127.849533,488.286713 129.823486,452.049988 
	C129.993912,448.921387 130.268539,445.798462 131.029755,442.609955 
	C131.875305,444.926849 132.185867,447.306702 132.583481,450.353516 
	C137.713211,449.928711 142.439362,449.506134 147.171082,449.159210 
	C149.390671,448.996490 152.129242,448.122528 152.000610,452.009766 
z"/>
<path fill="#F18F45" opacity="1.000000" stroke="none" 
	d="
M1465.142090,383.624298 
	C1468.897339,369.966614 1479.844849,370.743958 1490.843018,370.850464 
	C1490.843018,361.040710 1490.748901,351.766144 1490.865967,342.494202 
	C1491.025391,329.866333 1502.095581,321.221832 1514.320557,324.043671 
	C1522.711548,325.980530 1528.535156,333.964233 1528.641602,343.929565 
	C1528.735596,352.715515 1528.661255,361.503296 1528.661255,371.036804 
	C1533.529663,371.036804 1537.807007,370.986237 1542.082764,371.046906 
	C1552.260986,371.191345 1559.013794,377.674988 1559.111572,387.332489 
	C1559.211426,397.200531 1552.413208,403.989532 1542.107056,404.214874 
	C1537.822754,404.308533 1533.534668,404.230408 1528.638672,404.230408 
	C1528.638672,406.690948 1528.638306,408.638733 1528.638794,410.586548 
	C1528.645142,436.394653 1528.686401,462.202820 1528.640991,488.010834 
	C1528.622681,498.426636 1523.437866,505.720093 1514.682129,508.004242 
	C1503.935791,510.807648 1493.463257,504.357635 1491.351562,493.468597 
	C1490.849609,490.880798 1490.842285,488.170502 1490.840332,485.516388 
	C1490.821533,460.540833 1490.853638,435.565216 1490.870483,410.589630 
	C1490.871826,408.770752 1490.870605,406.951843 1490.870605,404.261261 
	C1476.246582,405.119385 1463.466675,403.272339 1465.142090,383.624298 
z"/>
<path fill="#33798B" opacity="1.000000" stroke="none" 
	d="
M182.018951,440.019775 
	C188.783493,431.310577 197.690765,426.731232 209.139145,426.296204 
	C202.998215,446.599335 201.282883,467.137970 206.844299,487.780731 
	C216.923813,525.193665 241.289444,548.588196 278.340485,559.120422 
	C279.137787,559.347107 279.939545,559.558167 280.977234,560.270081 
	C281.494080,560.618958 281.772980,560.474304 282.051849,560.329651 
	C282.805176,560.390991 283.558502,560.452271 284.654572,561.102417 
	C285.400269,564.602356 284.290039,566.209778 281.327728,567.118347 
	C275.654327,568.858154 270.149475,571.142944 264.491974,572.941284 
	C261.804474,573.795654 260.617889,575.239197 261.000000,577.995117 
	C253.368179,574.477539 245.301071,571.672241 238.179276,567.320068 
	C205.993439,547.651123 187.296753,518.554077 181.259506,481.628387 
	C179.431198,470.445892 180.278564,458.812225 180.131668,447.382263 
	C180.107666,445.515869 181.288467,443.633942 181.962570,441.127197 
	C182.012711,440.495148 182.041489,440.007935 182.041489,440.007935 
	C182.041489,440.007935 182.011826,440.003082 182.018951,440.019775 
z"/>
<path fill="#F39841" opacity="1.000000" stroke="none" 
	d="
M121.928802,295.605957 
	C123.352036,294.121796 124.775261,292.637604 126.834122,291.005066 
	C135.098892,287.488007 142.911301,284.539948 151.395935,285.089752 
	C169.456039,286.259979 179.730270,298.549042 189.044800,312.062531 
	C175.396652,322.973511 163.036606,335.177063 151.504684,348.879517 
	C144.891525,342.741333 138.785004,336.682343 132.957199,330.366150 
	C125.407326,322.183594 119.044533,313.417664 120.967606,301.255829 
	C121.195961,299.811676 120.897644,298.284271 120.843460,296.795441 
	C120.843460,296.795441 120.965881,296.850861 121.209068,296.774109 
	C121.611107,296.333588 121.769951,295.969757 121.928802,295.605957 
z"/>
<path fill="#2F7588" opacity="1.000000" stroke="none" 
	d="
M261.234802,578.269775 
	C260.617889,575.239197 261.804474,573.795654 264.491974,572.941284 
	C270.149475,571.142944 275.654327,568.858154 281.327728,567.118347 
	C284.290039,566.209778 285.400269,564.602356 284.996033,561.273315 
	C297.916382,562.093445 310.766785,562.887207 323.671295,560.045227 
	C339.097900,556.647705 352.672455,549.706543 365.069397,540.153687 
	C366.114136,539.348694 367.260620,538.675598 369.115845,537.835083 
	C380.058350,537.791748 384.493011,544.058350 381.087799,553.665710 
	C380.545074,555.196960 379.687408,556.616516 378.975372,558.087708 
	C361.544769,573.119446 341.144440,581.927734 318.541229,584.676270 
	C299.238983,587.023499 279.975098,585.402466 261.234802,578.269775 
z"/>
<path fill="#E06F32" opacity="1.000000" stroke="none" 
	d="
M120.522476,296.892914 
	C120.897644,298.284271 121.195961,299.811676 120.967606,301.255829 
	C119.044533,313.417664 125.407326,322.183594 132.957199,330.366150 
	C138.785004,336.682343 144.891525,342.741333 151.235580,349.035889 
	C146.283691,357.167786 140.970367,365.178467 135.259506,373.788483 
	C125.342987,363.063721 114.646202,352.676117 105.398125,341.128326 
	C97.672089,331.481079 99.586090,317.135620 108.212097,308.263916 
	C112.032410,304.334808 116.194519,300.738037 120.522476,296.892914 
z"/>
<path fill="#F8B87F" opacity="1.000000" stroke="none" 
	d="
M379.370056,558.059509 
	C379.687408,556.616516 380.545074,555.196960 381.087799,553.665710 
	C384.493011,544.058350 380.058350,537.791748 369.447083,537.700928 
	C376.264435,534.520081 383.438141,531.196655 390.765503,528.256042 
	C400.577301,524.318298 410.508118,520.677002 420.791931,517.316284 
	C420.816864,524.845215 423.949280,530.321716 428.885376,534.976685 
	C424.413971,540.715149 420.406677,546.406799 416.056030,551.822632 
	C410.575897,558.644409 404.815277,565.240906 399.175690,571.934570 
	C399.679413,557.966370 393.474640,553.522156 379.370056,558.059509 
z"/>
<path fill="#FCB577" opacity="1.000000" stroke="none" 
	d="
M189.355804,311.927063 
	C179.730270,298.549042 169.456039,286.259979 151.395935,285.089752 
	C142.911301,284.539948 135.098892,287.488007 127.082718,290.816223 
	C134.739838,283.190887 142.023697,274.495148 151.036972,268.326263 
	C160.493561,261.853943 172.586411,264.800354 180.611359,273.128204 
	C189.035767,281.870636 197.352783,290.716522 206.171555,299.995789 
	C200.598236,303.979004 195.132523,307.885315 189.355804,311.927063 
z"/>
<path fill="#89898B" opacity="1.000000" stroke="none" 
	d="
M1452.742676,600.771790 
	C1448.428711,600.787292 1447.230103,598.371643 1447.218628,594.927063 
	C1447.198486,588.935852 1447.255127,582.943298 1447.143799,576.953857 
	C1447.044678,571.630310 1444.787964,569.052368 1440.345947,568.867920 
	C1435.597412,568.670654 1432.080811,571.691650 1431.863037,576.696472 
	C1431.602539,582.676941 1431.741333,588.675171 1431.723999,594.665710 
	C1431.714600,597.927368 1431.137451,600.886108 1427.040405,600.895386 
	C1422.909302,600.904724 1422.381104,597.903503 1422.378296,594.660217 
	C1422.370483,586.006104 1422.134644,577.342163 1422.504272,568.704163 
	C1422.608154,566.278137 1423.916138,562.861877 1425.740112,561.875916 
	C1427.238892,561.065674 1430.320312,563.183472 1433.623535,564.321594 
	C1442.802734,558.547363 1447.884033,559.102234 1455.384399,567.766113 
	C1458.838745,563.805908 1462.722412,560.727295 1468.428101,560.917725 
	C1475.420898,561.151306 1480.394043,565.003235 1480.859619,572.023132 
	C1481.398193,580.144043 1481.312744,588.331726 1480.942383,596.465210 
	C1480.872314,598.007019 1478.405151,600.331970 1476.695068,600.707947 
	C1473.782959,601.348022 1472.207886,599.140930 1472.185791,596.162903 
	C1472.140381,590.005310 1472.202637,583.846313 1472.103271,577.689880 
	C1472.003784,571.521912 1469.812134,568.812561 1465.116943,568.772522 
	C1460.011963,568.729004 1456.750244,572.078796 1456.618286,577.720642 
	C1456.485840,583.376831 1456.806152,589.061829 1456.321655,594.682068 
	C1456.141357,596.772278 1454.243164,598.714478 1452.742676,600.771790 
z"/>
<path fill="#8A8B8C" opacity="1.000000" stroke="none" 
	d="
M650.233032,589.500732 
	C650.119507,583.873535 649.102356,578.364624 650.356079,573.433105 
	C653.117615,562.571350 664.970215,557.821838 675.133850,562.687195 
	C675.991150,563.097595 676.874573,563.453491 678.448792,564.142212 
	C678.448792,559.628235 678.479248,555.675293 678.439209,551.723022 
	C678.406921,548.537048 679.330200,545.844360 682.938843,545.749512 
	C686.913818,545.644897 687.717102,548.483887 687.709229,551.878601 
	C687.676453,566.036316 687.843933,580.196350 687.605286,594.349854 
	C687.569824,596.455200 686.189575,599.745483 684.649719,600.294312 
	C682.947327,600.901123 680.345642,598.984741 677.435669,597.908264 
	C668.071289,605.382629 655.909485,602.159119 650.233032,589.500732 
M675.631165,571.856628 
	C670.081482,567.470337 665.306274,567.548279 661.079773,571.999390 
	C657.599243,575.664978 657.380554,580.049622 658.322998,584.598022 
	C659.544189,590.491455 663.228271,593.417175 668.785400,593.218506 
	C674.044434,593.030579 678.704712,588.927917 678.704102,583.319336 
	C678.703674,579.695374 677.050598,576.071533 675.631165,571.856628 
z"/>
<path fill="#878789" opacity="1.000000" stroke="none" 
	d="
M1093.401733,591.999268 
	C1093.393188,584.020325 1093.100464,576.524536 1093.536987,569.071472 
	C1093.688110,566.491699 1095.113159,563.379517 1097.020386,561.776062 
	C1097.920410,561.019348 1101.331055,563.248901 1104.132935,564.329224 
	C1111.423096,559.006714 1120.823120,559.343567 1127.010620,566.364685 
	C1133.589478,573.829773 1134.149292,586.617004 1128.303467,594.134644 
	C1121.939941,602.318176 1114.697754,603.478699 1102.679199,597.602539 
	C1102.679199,601.539734 1102.628418,605.047424 1102.693604,608.553040 
	C1102.756592,611.940491 1102.387207,615.412048 1098.217773,615.564087 
	C1093.545776,615.734497 1093.380493,611.896362 1093.359131,608.454102 
	C1093.326050,603.136108 1093.384277,597.817505 1093.401733,591.999268 
M1123.186279,580.559143 
	C1122.622314,573.072754 1119.359863,569.104736 1113.528931,568.813354 
	C1107.029785,568.488525 1102.687500,573.105469 1102.310303,580.741516 
	C1101.983154,587.363342 1106.120728,592.646606 1112.010986,593.128357 
	C1118.602661,593.667480 1122.397583,589.692322 1123.186279,580.559143 
z"/>
<path fill="#8A8B8C" opacity="1.000000" stroke="none" 
	d="
M818.517700,568.635620 
	C826.143494,559.556702 833.833313,558.505676 843.130676,564.178406 
	C846.324585,563.048218 849.148682,561.036255 850.927185,561.724854 
	C852.481812,562.326782 853.550415,565.942322 853.634583,568.269775 
	C853.947449,576.921509 853.978821,585.599915 853.622437,594.247986 
	C853.530945,596.467896 852.133240,599.453857 850.385437,600.499023 
	C849.210022,601.202087 846.364014,599.111328 843.455811,597.946106 
	C834.410889,603.098755 827.563599,602.920471 821.165588,596.651550 
	C814.147034,589.774475 813.042847,579.069885 818.517700,568.635620 
M844.158813,586.229492 
	C844.193237,582.837280 844.966187,579.243774 844.107788,576.095032 
	C842.343079,569.621887 835.503235,566.977417 829.882263,569.967712 
	C825.560852,572.266663 823.153015,577.358459 823.996582,583.165894 
	C824.671875,587.815308 826.518005,591.807312 831.690369,593.031006 
	C837.077576,594.305542 840.167053,592.747803 844.158813,586.229492 
z"/>
<path fill="#878789" opacity="1.000000" stroke="none" 
	d="
M1202.448853,561.151306 
	C1205.130737,562.200500 1207.388672,563.190063 1208.572266,563.708740 
	C1211.738647,562.780151 1214.662354,560.932495 1216.231934,561.734680 
	C1217.873657,562.573730 1218.917114,565.935364 1218.997681,568.237244 
	C1219.306274,577.045837 1219.313477,585.878845 1218.980225,594.685669 
	C1218.902710,596.731567 1217.470459,599.743591 1215.869507,600.411011 
	C1214.442871,601.005737 1211.920532,598.972229 1209.177612,597.796875 
	C1200.888184,602.828796 1193.940796,602.915588 1187.561646,597.416870 
	C1181.131714,591.874329 1178.824219,580.878113 1182.241455,572.063660 
	C1185.224487,564.369324 1192.086426,560.563660 1202.448853,561.151306 
M1208.488525,588.851562 
	C1209.224243,587.008911 1210.277832,585.226685 1210.641724,583.313354 
	C1212.358643,574.285767 1204.435425,566.383545 1196.630127,569.335083 
	C1191.885376,571.129395 1189.911743,575.022827 1189.696899,579.913086 
	C1189.421509,586.179260 1191.596313,590.852051 1195.902222,592.466980 
	C1200.516479,594.197632 1204.749023,593.570984 1208.488525,588.851562 
z"/>
<path fill="#89898B" opacity="1.000000" stroke="none" 
	d="
M601.433960,597.646973 
	C589.966736,587.017456 591.986450,568.474548 604.952087,562.554504 
	C616.882507,557.107117 630.276367,564.674255 631.702637,577.667725 
	C632.221313,582.393616 630.827698,583.999390 625.984009,584.029114 
	C618.508057,584.075012 611.031677,584.041199 603.536133,584.041199 
	C604.199768,592.055725 612.387024,595.931824 620.509705,592.318726 
	C621.263123,591.983582 621.962585,591.512634 622.653381,591.054016 
	C624.995972,589.498657 627.377930,588.953491 629.179260,591.632935 
	C631.294189,594.778931 629.050537,596.635925 626.647400,598.018982 
	C618.342468,602.798523 609.993958,603.300293 601.433960,597.646973 
M622.337158,575.218201 
	C620.498657,570.507324 617.028748,567.969849 612.006165,568.484436 
	C607.395325,568.956909 604.225464,571.542053 602.861328,577.475342 
	C609.832520,576.936340 616.164307,576.446838 622.337158,575.218201 
z"/>
<path fill="#EA8844" opacity="1.000000" stroke="none" 
	d="
M399.002380,572.194153 
	C404.815277,565.240906 410.575897,558.644409 416.056030,551.822632 
	C420.406677,546.406799 424.413971,540.715149 429.239105,535.070312 
	C433.357849,536.167664 436.811218,537.340637 440.264587,538.513672 
	C438.127411,543.863220 436.246796,549.333252 433.801575,554.538025 
	C428.040253,566.801514 422.009766,578.938599 415.813232,591.336426 
	C416.812408,578.956970 410.965851,573.836365 398.761383,576.774231 
	C398.341949,576.875122 397.712952,576.105469 397.263916,575.424194 
	C397.840454,574.222534 398.334747,573.338135 399.002380,572.194153 
z"/>
<path fill="#8A8B8C" opacity="1.000000" stroke="none" 
	d="
M1350.264404,598.378357 
	C1342.493408,603.002075 1335.009888,602.783630 1327.910889,598.029907 
	C1321.052124,593.437073 1318.581665,586.542053 1319.462769,578.532288 
	C1320.384155,570.155273 1324.894653,564.427246 1333.018066,561.794556 
	C1342.441895,558.740295 1352.396362,562.635437 1356.983154,571.103333 
	C1361.860107,580.106995 1359.205444,591.316101 1350.264404,598.378357 
M1345.011719,591.893860 
	C1346.046875,590.832092 1347.295410,589.907776 1348.082764,588.686218 
	C1353.414795,580.413147 1348.756348,569.080444 1339.917236,568.694885 
	C1335.305176,568.493713 1331.763794,570.364929 1329.810669,574.583679 
	C1327.405884,579.778320 1327.339111,585.042969 1331.121338,589.604248 
	C1334.650146,593.859619 1339.342529,594.160217 1345.011719,591.893860 
z"/>
<path fill="#89898B" opacity="1.000000" stroke="none" 
	d="
M945.568909,589.128418 
	C942.468872,580.279846 943.855042,572.654236 950.232239,566.212891 
	C955.876770,560.511597 962.908203,559.802490 970.187134,561.764160 
	C979.769531,564.346619 984.572449,572.086121 984.105896,583.274475 
	C983.752747,591.743164 977.436340,599.218262 969.120300,601.008911 
	C958.745972,603.242737 950.716187,599.284607 945.568909,589.128418 
M963.573547,568.768311 
	C956.930664,569.840942 953.526184,573.420959 953.007324,579.879211 
	C952.482788,586.408508 955.356384,591.397522 960.536194,592.950317 
	C966.901794,594.858459 973.003479,591.338135 974.706238,584.775208 
	C976.831726,576.582581 972.768555,570.268188 963.573547,568.768311 
z"/>
<path fill="#33798B" opacity="1.000000" stroke="none" 
	d="
M263.767975,464.748291 
	C261.610992,466.006409 259.190125,466.903870 256.872284,468.016052 
	C255.379913,468.732147 253.792053,469.527832 252.675186,470.696899 
	C248.981613,474.563202 245.642059,478.919800 239.104202,477.913879 
	C233.407120,475.081146 227.804352,472.139557 222.499313,468.734161 
	C221.175507,467.884369 220.049408,465.497803 220.136826,463.888367 
	C220.541946,456.429077 221.406235,448.994781 222.302017,441.238647 
	C230.246857,445.920654 237.843185,451.176849 245.796280,455.822144 
	C251.464935,459.133118 257.613373,461.622620 263.767975,464.748291 
z"/>
<path fill="#878789" opacity="1.000000" stroke="none" 
	d="
M1012.984741,578.423462 
	C1012.967590,584.368835 1012.939392,589.858276 1012.943176,595.347717 
	C1012.945496,598.644592 1011.707581,600.988342 1008.079102,600.874512 
	C1004.645996,600.766785 1003.815979,598.384277 1003.835510,595.342834 
	C1003.893250,586.360474 1003.870972,577.377380 1003.841003,568.394775 
	C1003.831421,565.528564 1003.474731,561.966003 1007.136597,561.669373 
	C1009.298645,561.494141 1011.648071,563.632446 1014.403381,564.967957 
	C1015.643311,564.239319 1017.773010,562.510010 1020.209595,561.641846 
	C1029.051880,558.491577 1036.817993,562.683899 1037.927368,571.955078 
	C1038.889404,579.995483 1038.668457,588.220520 1038.326050,596.336731 
	C1038.259644,597.912537 1035.223755,599.363098 1033.557617,600.871460 
	C1032.185181,599.140808 1029.797974,597.503479 1029.628418,595.662170 
	C1029.097168,589.887024 1029.425049,584.034912 1029.375244,578.212952 
	C1029.318481,571.584534 1027.413696,569.024109 1022.449829,568.790955 
	C1016.956726,568.532959 1013.750488,571.642273 1012.984741,578.423462 
z"/>
<path fill="#89898B" opacity="1.000000" stroke="none" 
	d="
M734.914978,574.026428 
	C734.922058,570.874084 734.441528,568.085083 735.094788,565.593262 
	C735.530029,563.933167 737.530701,561.625793 738.924316,561.559082 
	C740.451965,561.485718 743.452698,563.648315 743.458252,564.847595 
	C743.500671,573.944519 743.748535,583.166870 742.348755,592.101990 
	C741.335266,598.570923 732.905334,602.321655 724.944641,601.566772 
	C716.500977,600.766235 710.884338,596.592224 710.147949,589.284790 
	C709.383728,581.701843 709.394653,574.000793 709.714722,566.378662 
	C709.788452,564.621704 712.296570,561.848206 714.048706,561.526550 
	C717.155945,560.956299 718.628296,563.618652 718.656189,566.669739 
	C718.710938,572.660339 718.618958,578.652588 718.710083,584.642334 
	C718.800537,590.585327 721.254150,593.210632 726.602783,593.344421 
	C731.948914,593.478088 734.620667,590.868164 734.875488,584.999268 
	C735.026855,581.510986 734.907227,578.010864 734.914978,574.026428 
z"/>
<path fill="#89898B" opacity="1.000000" stroke="none" 
	d="
M788.893127,592.308289 
	C790.899658,591.400818 792.573669,590.065247 794.167419,590.155212 
	C795.379211,590.223511 797.536560,592.232483 797.423645,593.150391 
	C797.195984,595.000488 796.151917,597.413635 794.664856,598.332214 
	C787.645264,602.668457 780.193909,603.096436 772.926453,598.918701 
	C766.021179,594.949280 762.236572,586.390564 763.436646,578.420532 
	C765.654053,563.693542 781.913635,555.600037 794.052124,563.347351 
	C795.607239,564.339966 796.819397,566.539307 797.211365,568.387207 
	C797.392517,569.241638 795.357056,571.270630 794.070435,571.538940 
	C792.709961,571.822632 791.011230,570.724854 789.518799,570.092407 
	C783.998840,567.753357 778.604065,568.767090 775.457214,572.799194 
	C771.972900,577.263672 771.639160,585.048218 774.961914,589.167969 
	C778.582153,593.656616 783.344116,594.073608 788.893127,592.308289 
z"/>
<path fill="#8A8B8C" opacity="1.000000" stroke="none" 
	d="
M1294.057251,585.983459 
	C1294.048096,589.478516 1294.018433,592.478394 1294.041748,595.477783 
	C1294.065796,598.562195 1292.949585,600.818481 1289.552368,600.826111 
	C1286.228882,600.833618 1284.922974,598.719238 1284.927979,595.581665 
	C1284.941650,587.269836 1284.932617,578.958008 1284.932617,570.646118 
	C1284.521851,570.938293 1284.111206,571.230408 1283.700439,571.522583 
	C1281.568115,569.557617 1279.435669,567.592590 1277.303345,565.627625 
	C1279.348999,563.909241 1281.394653,562.190857 1283.440186,560.472473 
	C1283.836304,560.770508 1284.232300,561.068604 1284.628296,561.366638 
	C1284.750488,559.757446 1284.849854,558.146118 1284.998535,556.539429 
	C1285.773193,548.176270 1295.325317,542.575562 1302.840820,546.342529 
	C1304.239258,547.043457 1304.828003,549.359741 1305.790527,550.930542 
	C1304.269287,551.859802 1302.709473,553.639771 1301.233521,553.572571 
	C1294.463013,553.264465 1293.621216,553.986511 1294.280029,561.217896 
	C1297.285889,563.543152 1304.559937,559.074463 1304.127686,566.213562 
	C1303.795166,571.705444 1297.835449,568.711670 1294.060059,570.385559 
	C1294.060059,575.244141 1294.060059,580.366089 1294.057251,585.983459 
z"/>
<path fill="#175F74" opacity="1.000000" stroke="none" 
	d="
M152.376038,451.929657 
	C152.129242,448.122528 149.390671,448.996490 147.171082,449.159210 
	C142.439362,449.506134 137.713211,449.928711 132.583481,450.353516 
	C132.185867,447.306702 131.875305,444.926849 131.269073,442.267700 
	C132.526077,433.538574 134.078766,425.088776 136.102203,416.570740 
	C136.572937,418.413818 136.572937,420.325134 136.572937,422.790253 
	C137.674942,422.686768 138.940475,422.753662 140.094925,422.427460 
	C145.076019,421.019867 150.024582,419.497101 154.984985,418.016296 
	C154.456192,427.145111 153.927383,436.273956 153.695892,445.693604 
	C153.579300,447.939453 153.165390,449.894501 152.376038,451.929657 
z"/>
<path fill="#256D81" opacity="1.000000" stroke="none" 
	d="
M155.001068,417.600403 
	C150.024582,419.497101 145.076019,421.019867 140.094925,422.427460 
	C138.940475,422.753662 137.674942,422.686768 136.572937,422.790253 
	C136.572937,420.325134 136.572937,418.413818 136.298599,416.258728 
	C139.513046,406.464050 142.994064,396.910278 146.499268,387.365387 
	C147.007935,385.980194 147.632477,384.637573 148.496643,383.088562 
	C151.120117,385.801208 153.679047,386.286835 156.919922,384.147156 
	C157.934341,383.477386 160.115463,383.244537 160.869522,383.876740 
	C161.657471,384.537384 161.761185,386.563477 161.489944,387.850616 
	C159.425308,397.648163 157.195526,407.410919 155.001068,417.600403 
z"/>
<path fill="#89898B" opacity="1.000000" stroke="none" 
	d="
M1250.640503,600.867371 
	C1245.791626,599.367126 1244.062622,596.095642 1244.062744,591.658569 
	C1244.062988,584.697754 1244.062866,577.736938 1244.062866,572.135986 
	C1241.188721,569.603088 1239.190552,567.842224 1237.192383,566.081360 
	C1238.992310,564.102234 1240.792358,562.123169 1242.592407,560.144104 
	C1243.037720,560.430237 1243.483032,560.716309 1243.928467,561.002441 
	C1244.027588,559.223572 1243.547485,557.086182 1244.371094,555.755737 
	C1245.425293,554.052368 1247.412231,552.239746 1249.227051,551.958862 
	C1250.266235,551.798035 1252.795532,554.545837 1252.848755,556.048096 
	C1252.984985,559.892639 1253.303711,562.440918 1258.201050,562.101990 
	C1259.345581,562.022766 1261.704590,564.520874 1261.630005,565.716187 
	C1261.543213,567.106812 1259.591553,568.714111 1258.078003,569.574463 
	C1256.923828,570.230530 1255.191162,569.868713 1253.075073,569.999146 
	C1253.075073,576.729004 1252.906250,583.325439 1253.245483,589.895691 
	C1253.300293,590.959961 1255.592896,591.930969 1256.882690,592.903259 
	C1258.411743,594.055847 1259.974731,595.163147 1261.523071,596.290100 
	C1259.858276,597.838562 1258.410400,599.825989 1256.457397,600.791321 
	C1254.991333,601.515869 1252.876099,600.926758 1250.640503,600.867371 
z"/>
<path fill="#878789" opacity="1.000000" stroke="none" 
	d="
M896.592957,565.141418 
	C894.241272,567.415527 891.842590,569.321899 889.443848,571.228210 
	C888.961853,570.853577 888.479858,570.479004 887.997864,570.104370 
	C887.997864,576.711975 887.839172,583.327332 888.163147,589.919006 
	C888.213745,590.948792 890.444397,591.893799 891.698364,592.836304 
	C893.109192,593.896729 894.555664,594.909790 895.986572,595.943481 
	C894.763977,597.497314 893.771606,600.097534 892.279297,600.425903 
	C885.415222,601.936584 878.596619,600.478027 878.893921,590.905884 
	C879.104675,584.121033 878.934753,577.324402 877.818176,571.285645 
	C875.943054,569.452332 874.067993,567.619019 872.192871,565.785645 
	C873.922119,564.070496 875.651428,562.355286 877.380676,560.640137 
	C877.765564,560.975952 878.150452,561.311768 878.535339,561.647583 
	C879.971497,558.176025 876.913269,551.673523 883.985779,552.029053 
	C889.536987,552.308228 887.212097,557.587524 887.952637,559.715332 
	C891.294556,561.682495 893.920288,563.228088 896.592957,565.141418 
z"/>
<path fill="#878789" opacity="1.000000" stroke="none" 
	d="
M1156.985352,545.653687 
	C1160.614258,546.242859 1161.529175,548.505371 1161.528687,551.471375 
	C1161.526489,565.917908 1161.533936,580.364502 1161.554932,594.811035 
	C1161.559937,598.247681 1160.362793,600.850281 1156.534424,600.805359 
	C1152.906006,600.762878 1151.982422,598.237488 1151.997070,594.991943 
	C1152.061157,580.711670 1152.083984,566.430847 1152.022949,552.150635 
	C1152.008423,548.754456 1152.880615,546.253174 1156.985352,545.653687 
z"/>
<path fill="#8A8B8C" opacity="1.000000" stroke="none" 
	d="
M1399.712524,560.956055 
	C1403.621094,561.442261 1404.944214,563.880554 1403.654175,566.623413 
	C1403.022949,567.965576 1400.006470,568.986755 1398.187622,568.824951 
	C1391.819336,568.258484 1388.092163,571.101685 1387.802856,577.817322 
	C1387.559692,583.463989 1387.660889,589.126282 1387.651245,594.781799 
	C1387.645630,598.094727 1386.978882,600.932312 1382.867920,600.873779 
	C1378.814941,600.816101 1378.156860,598.069397 1378.185181,594.700012 
	C1378.257568,586.051086 1377.985962,577.391968 1378.346313,568.757568 
	C1378.447876,566.327087 1379.668335,562.950623 1381.474365,561.903503 
	C1382.874756,561.091675 1385.986206,563.231384 1388.316650,564.051880 
	C1391.642944,563.103699 1395.466064,562.013977 1399.712524,560.956055 
z"/>
<path fill="#27323D" opacity="1.000000" stroke="none" 
	d="
M440.547119,538.303955 
	C436.811218,537.340637 433.357849,536.167664 429.550781,534.901001 
	C423.949280,530.321716 420.816864,524.845215 421.184631,517.288940 
	C421.940033,516.497375 422.706818,516.140930 423.794220,516.241638 
	C424.114838,519.650513 424.114838,522.602295 424.114838,526.051392 
	C428.822113,523.237244 432.763672,521.402222 436.075653,518.773926 
	C440.598907,515.184326 444.642914,510.990814 448.892395,507.056152 
	C452.381287,508.001221 451.910492,510.511780 450.974274,512.896057 
	C447.664948,521.323792 444.221985,529.699036 440.547119,538.303955 
z"/>
<path fill="#89898B" opacity="1.000000" stroke="none" 
	d="
M915.454041,579.007263 
	C915.440002,574.677002 915.428223,570.844727 915.412903,567.012451 
	C915.399536,563.670654 916.965393,561.428101 920.349731,561.332764 
	C923.812317,561.235291 924.753967,563.841187 924.770691,566.775024 
	C924.824829,576.272217 924.794250,585.769836 924.829102,595.267212 
	C924.841187,598.556824 923.701721,600.956177 920.031494,600.840332 
	C916.408142,600.726135 915.370239,598.236328 915.401611,595.000793 
	C915.451660,589.835938 915.440186,584.670471 915.454041,579.007263 
z"/>
<path fill="#33798B" opacity="1.000000" stroke="none" 
	d="
M254.193909,485.415833 
	C254.020584,479.674957 258.384369,478.825073 262.181244,478.475525 
	C266.717896,478.057922 271.381897,478.578461 275.943268,479.104218 
	C277.656738,479.301697 279.237183,480.653564 280.878235,481.479187 
	C279.935608,483.176056 279.372040,485.357300 277.963867,486.459198 
	C275.702087,488.229004 272.881836,489.285126 270.083191,490.947296 
	C264.722931,489.390594 259.577057,487.529358 254.193909,485.415833 
z"/>
<path fill="#175F74" opacity="1.000000" stroke="none" 
	d="
M448.513092,506.962830 
	C444.642914,510.990814 440.598907,515.184326 436.075653,518.773926 
	C432.763672,521.402222 428.822113,523.237244 424.114838,526.051392 
	C424.114838,522.602295 424.114838,519.650513 424.121643,516.233765 
	C432.130219,512.802368 440.131989,509.835907 448.513092,506.962830 
z"/>
<path fill="#33798B" opacity="1.000000" stroke="none" 
	d="
M296.370026,497.002441 
	C294.867920,496.137085 293.536774,495.591217 292.679352,494.624939 
	C291.916199,493.765045 291.677765,492.439545 291.207733,491.319519 
	C292.169434,490.947052 293.167694,490.182953 294.086670,490.268707 
	C298.492035,490.679901 302.866882,491.423431 307.273438,491.813263 
	C308.479126,491.919891 310.421967,491.603119 310.890656,490.809601 
	C313.382080,486.591919 316.974884,488.138916 320.857605,488.348236 
	C320.524017,489.523163 320.359161,491.074921 320.032288,491.109863 
	C314.759705,491.672943 311.377686,497.828033 305.318329,496.077911 
	C304.760101,495.916687 303.934479,496.681152 303.123718,497.382782 
	C300.925293,497.546173 298.836182,497.342621 296.370026,497.002441 
z"/>
<path fill="#8A8B8C" opacity="1.000000" stroke="none" 
	d="
M922.239197,547.810364 
	C925.613525,549.850586 925.994202,552.783508 923.903076,555.048523 
	C922.711365,556.339233 919.539062,556.855042 917.793274,556.229065 
	C916.521667,555.773010 915.299805,552.776917 915.509094,551.093811 
	C915.941223,547.617676 918.695312,546.867065 922.239197,547.810364 
z"/>
<path fill="#E06F32" opacity="1.000000" stroke="none" 
	d="
M121.658966,295.756195 
	C121.769951,295.969757 121.611107,296.333588 121.184937,296.836823 
	C121.074791,296.619659 121.231956,296.263031 121.658966,295.756195 
z"/>
<path fill="#2F7588" opacity="1.000000" stroke="none" 
	d="
M281.859985,560.252930 
	C281.772980,560.474304 281.494080,560.618958 281.235535,560.484497 
	C281.255859,560.205322 281.668121,560.176270 281.859985,560.252930 
z"/>
<path fill="#33798B" opacity="1.000000" stroke="none" 
	d="
M291.648590,473.871948 
	C289.383301,475.470917 286.774994,476.906555 283.006805,478.980621 
	C283.006805,475.895172 283.006805,474.332550 283.015869,472.348114 
	C285.785126,472.520416 288.545349,473.114502 291.648590,473.871948 
z"/>
<path fill="#094E64" opacity="1.000000" stroke="none" 
	d="
M181.869049,440.085815 
	C182.041489,440.007935 182.012711,440.495148 181.996521,440.738403 
	C181.814423,440.810913 181.634460,440.650360 181.496094,440.459656 
	C181.472244,440.426788 181.625275,440.265594 181.869049,440.085815 
z"/>
<path fill="#FBFBFC" opacity="1.000000" stroke="none" 
	d="
M1068.088379,460.791565 
	C1060.662109,446.352661 1060.332764,431.852783 1067.150024,417.741028 
	C1077.057495,397.232666 1103.687134,395.717590 1116.477783,414.543854 
	C1125.545654,427.890381 1125.076172,450.221130 1115.455444,463.183136 
	C1103.723022,478.990173 1083.744141,479.653015 1071.037720,464.646118 
	C1070.071655,463.505157 1069.194336,462.289062 1068.088379,460.791565 
z"/>
<path fill="#FBFBFC" opacity="1.000000" stroke="none" 
	d="
M694.914917,460.936157 
	C687.669617,446.891022 687.203491,432.744324 693.247681,418.749542 
	C697.704407,408.430267 705.861755,402.237793 717.496582,401.480255 
	C728.812805,400.743439 737.512390,405.321838 743.729431,414.664612 
	C752.887878,428.427704 752.234253,449.709656 742.787048,463.248291 
	C731.829834,478.950897 706.943665,480.651459 694.914917,460.936157 
z"/>
<path fill="#FBFBFC" opacity="1.000000" stroke="none" 
	d="
M1364.233276,418.455017 
	C1373.104980,394.321198 1399.519897,393.140472 1412.239746,405.889191 
	C1417.292725,410.953705 1419.770386,417.077850 1420.901123,424.485443 
	C1401.630981,424.485443 1382.617310,424.485443 1362.955933,424.485443 
	C1363.349731,422.548065 1363.727783,420.687561 1364.233276,418.455017 
z"/>
<path fill="#F9F9F9" opacity="1.000000" stroke="none" 
	d="
M675.884644,572.152100 
	C677.050598,576.071533 678.703674,579.695374 678.704102,583.319336 
	C678.704712,588.927917 674.044434,593.030579 668.785400,593.218506 
	C663.228271,593.417175 659.544189,590.491455 658.322998,584.598022 
	C657.380554,580.049622 657.599243,575.664978 661.079773,571.999390 
	C665.306274,567.548279 670.081482,567.470337 675.884644,572.152100 
z"/>
<path fill="#F9F9F9" opacity="1.000000" stroke="none" 
	d="
M1123.185791,580.991211 
	C1122.397583,589.692322 1118.602661,593.667480 1112.010986,593.128357 
	C1106.120728,592.646606 1101.983154,587.363342 1102.310303,580.741516 
	C1102.687500,573.105469 1107.029785,568.488525 1113.528931,568.813354 
	C1119.359863,569.104736 1122.622314,573.072754 1123.185791,580.991211 
z"/>
<path fill="#F9F9F9" opacity="1.000000" stroke="none" 
	d="
M844.029236,586.607788 
	C840.167053,592.747803 837.077576,594.305542 831.690369,593.031006 
	C826.518005,591.807312 824.671875,587.815308 823.996582,583.165894 
	C823.153015,577.358459 825.560852,572.266663 829.882263,569.967712 
	C835.503235,566.977417 842.343079,569.621887 844.107788,576.095032 
	C844.966187,579.243774 844.193237,582.837280 844.029236,586.607788 
z"/>
<path fill="#F9F9F9" opacity="1.000000" stroke="none" 
	d="
M1208.252197,589.157715 
	C1204.749023,593.570984 1200.516479,594.197632 1195.902222,592.466980 
	C1191.596313,590.852051 1189.421509,586.179260 1189.696899,579.913086 
	C1189.911743,575.022827 1191.885376,571.129395 1196.630127,569.335083 
	C1204.435425,566.383545 1212.358643,574.285767 1210.641724,583.313354 
	C1210.277832,585.226685 1209.224243,587.008911 1208.252197,589.157715 
z"/>
<path fill="#F9F9F9" opacity="1.000000" stroke="none" 
	d="
M622.416626,575.587769 
	C616.164307,576.446838 609.832520,576.936340 602.861328,577.475342 
	C604.225464,571.542053 607.395325,568.956909 612.006165,568.484436 
	C617.028748,567.969849 620.498657,570.507324 622.416626,575.587769 
z"/>
<path fill="#F9F9F9" opacity="1.000000" stroke="none" 
	d="
M1344.656738,592.083679 
	C1339.342529,594.160217 1334.650146,593.859619 1331.121338,589.604248 
	C1327.339111,585.042969 1327.405884,579.778320 1329.810669,574.583679 
	C1331.763794,570.364929 1335.305176,568.493713 1339.917236,568.694885 
	C1348.756348,569.080444 1353.414795,580.413147 1348.082764,588.686218 
	C1347.295410,589.907776 1346.046875,590.832092 1344.656738,592.083679 
z"/>
<path fill="#F9F9F9" opacity="1.000000" stroke="none" 
	d="
M963.990356,568.769165 
	C972.768555,570.268188 976.831726,576.582581 974.706238,584.775208 
	C973.003479,591.338135 966.901794,594.858459 960.536194,592.950317 
	C955.356384,591.397522 952.482788,586.408508 953.007324,579.879211 
	C953.526184,573.420959 956.930664,569.840942 963.990356,568.769165 
z"/>
</svg>